<mxfile host="app.diagrams.net" modified="2024-01-06T19:32:12.061Z" agent="Mozilla/5.0 (Macintosh; Intel Mac OS X 10_15_7) AppleWebKit/537.36 (KHTML, like Gecko) Chrome/119.0.0.0 Safari/537.36" version="22.1.17" etag="WydpEFDWw_EnKAzKs4lf" type="github">
  <diagram name="Page-1" id="1ZIAHbROw0Fzw-ZFgbsh">
    <mxGraphModel>
      <root>
        <mxCell id="0" />
        <mxCell id="1" parent="0" />
      </root>
    </mxGraphModel>
  </diagram>
</mxfile>
